<?xml version="1.0" encoding="UTF-8"?>
<svg width="24px" height="24px" viewBox="0 0 24 24" version="1.1" xmlns="http://www.w3.org/2000/svg" xmlns:xlink="http://www.w3.org/1999/xlink">
    <!-- Generator: sketchtool 54.1 (76490) - https://sketchapp.com -->
    <title>A628A942-89CF-4C42-878B-11F8904CA659@0.5x</title>
    <desc>Created with sketchtool.</desc>
    <defs>
        <linearGradient x1="-1.11022302e-14%" y1="50%" x2="100%" y2="50%" id="linearGradient-1">
            <stop stop-color="#FF217B" offset="0%"></stop>
            <stop stop-color="#F76B1C" offset="100%"></stop>
        </linearGradient>
    </defs>
    <g id="News-Web" stroke="none" stroke-width="1" fill="none" fill-rule="evenodd">
        <g id="Navigation-/-colapse-drop-down" transform="translate(-16.000000, -137.000000)" fill="#ffffff" fill-rule="nonzero">
            <g id="List-item-Copy-18" transform="translate(0.000000, 121.000000)">
                <g id="icn-/-menu" transform="translate(16.000000, 16.000000)">
                    <g id="round-games-24px">
                        <path d="M15.6,6.34799997 L15.6,1.19999999 C15.6,0.539999998 15.06,0 14.4,0 L9.6,0 C8.94,0 8.4,0.539999998 8.4,1.19999999 L8.4,6.34799997 C8.4,6.50399997 8.46,6.65999997 8.58,6.76799997 L11.58,9.76799996 C11.82,10.008 12.192,10.008 12.432,9.76799996 L15.432,6.76799997 C15.54,6.65999997 15.6,6.51599997 15.6,6.34799997 Z M6.34799997,8.4 L1.19999999,8.4 C0.539999998,8.4 0,8.94 0,9.6 L0,14.4 C0,15.06 0.539999998,15.6 1.19999999,15.6 L6.34799997,15.6 C6.50399997,15.6 6.65999997,15.54 6.76799997,15.42 L9.76799996,12.42 C10.008,12.18 10.008,11.808 9.76799996,11.568 L6.76799997,8.568 C6.65999997,8.46 6.51599997,8.4 6.34799997,8.4 Z M8.4,17.652 L8.4,22.8 C8.4,23.46 8.94,24 9.6,24 L14.4,24 C15.06,24 15.6,23.46 15.6,22.8 L15.6,17.652 C15.6,17.496 15.54,17.34 15.42,17.232 L12.42,14.232 C12.18,13.992 11.808,13.992 11.568,14.232 L8.568,17.232 C8.46,17.34 8.4,17.484 8.4,17.652 Z M17.2199998,8.58000011 L14.2199998,11.5800002 C13.9799998,11.8200002 13.9799998,12.1920002 14.2199998,12.4320002 L17.2199998,15.4320003 C17.3279998,15.5400003 17.4839999,15.6120003 17.6399999,15.6120003 L22.8,15.6120003 C23.46,15.6120003 24,15.0720003 24,14.4120002 L24,9.61200013 C24,8.95200012 23.46,8.41200011 22.8,8.41200011 L17.6519999,8.41200011 C17.4839999,8.40000011 17.3399998,8.46000011 17.2199998,8.58000011 L17.2199998,8.58000011 Z" id="Shape"></path>
                    </g>
                </g>
            </g>
        </g>
    </g>
</svg>